<svg xmlns="http://www.w3.org/2000/svg" viewBox="0 0 1920 1080"><g transform="
          rotate(271 960 540) 
          translate(-763.1610432466996 -429.27808682626846)
          scale(1.7949594200486454)
        "><rect width="1920" height="1080" fill="rgb(23, 23, 23)"></rect><g transform="translate(0, 0)"><path fill="rgb(18, 18, 18)" fill-opacity="1" d="M0,370.34L53.333,318.59C106.667,266.839,213.333,163.337,320,148.223C426.667,133.109,533.333,206.382,640,252.192C746.667,298.003,853.333,316.351,960,292.697C1066.667,269.043,1173.333,203.388,1280,175.928C1386.667,148.469,1493.333,159.206,1600,216.733C1706.667,274.261,1813.333,378.578,1866.667,430.737L1920,482.895L1920,1080L1866.667,1080C1813.333,1080,1706.667,1080,1600,1080C1493.333,1080,1386.667,1080,1280,1080C1173.333,1080,1066.667,1080,960,1080C853.333,1080,746.667,1080,640,1080C533.333,1080,426.667,1080,320,1080C213.333,1080,106.667,1080,53.333,1080L0,1080Z"></path></g><g transform="translate(0, 540)"><path fill="rgb(13, 13, 13)" fill-opacity="1" d="M0,486.861L53.333,473.879C106.667,460.897,213.333,434.933,320,423.098C426.667,411.262,533.333,413.555,640,396.198C746.667,378.841,853.333,341.834,960,310.791C1066.667,279.747,1173.333,254.667,1280,236.357C1386.667,218.046,1493.333,206.505,1600,192.524C1706.667,178.544,1813.333,162.126,1866.667,153.916L1920,145.707L1920,540L1866.667,540C1813.333,540,1706.667,540,1600,540C1493.333,540,1386.667,540,1280,540C1173.333,540,1066.667,540,960,540C853.333,540,746.667,540,640,540C533.333,540,426.667,540,320,540C213.333,540,106.667,540,53.333,540L0,540Z"></path></g></g></svg>